<svg xmlns="http://www.w3.org/2000/svg" xmlns:svg="http://www.w3.org/2000/svg" id="svg2" width="819.93" height="438.942" version="1.0"><metadata id="metadata7"/><g id="layer1" transform="translate(34.668276,-585.75174)"><g id="g3157"><rect id="rect2383" width="647.961" height="431.974" x="51.316" y="591.22" style="fill:#ff8d8d;fill-opacity:1;stroke:#000;stroke-width:3;stroke-miterlimit:4;stroke-dasharray:none;stroke-opacity:1"/><rect id="rect2385" width="649.493" height="119.482" x="50.55" y="591.22" style="fill:#90e9b5;fill-opacity:1;stroke:#000;stroke-width:3;stroke-miterlimit:4;stroke-dasharray:none;stroke-opacity:1"/></g><path style="fill:#192c82;fill-opacity:1;fill-rule:evenodd;stroke:#0c1379;stroke-width:8;stroke-linecap:butt;stroke-linejoin:miter;stroke-miterlimit:4;stroke-dasharray:none;stroke-opacity:1" id="path3161" d="M 375.29656,591.28356 C 375.29656,709.2339 375.29656,710.76572 375.29656,710.76572 L 375.29656,710.76572"/><path style="fill:none;fill-rule:evenodd;stroke:#a30000;stroke-width:8;stroke-linecap:butt;stroke-linejoin:miter;stroke-miterlimit:4;stroke-dasharray:none;stroke-opacity:1" id="path3163" d="M 375.29655,589.75174 C 375.29655,651.02464 375.29655,651.02464 375.29655,651.02464"/><text style="font-size:40px;font-style:normal;font-weight:400;fill:#a40000;fill-opacity:1;stroke:#a30000;stroke-width:1px;stroke-linecap:butt;stroke-linejoin:miter;stroke-opacity:1;font-family:Bitstream Vera Sans" id="text3165" x="391.999" y="635.706" xml:space="preserve"><tspan id="tspan3167" x="391.999" y="635.706">Locked</tspan></text><text style="font-size:40px;font-style:normal;font-weight:400;fill:#0b1378;fill-opacity:1;stroke:#0b1279;stroke-width:1px;stroke-linecap:butt;stroke-linejoin:miter;stroke-opacity:1;font-family:Bitstream Vera Sans" id="text3169" x="393.678" y="693.916" xml:space="preserve"><tspan id="tspan3171" x="393.678" y="693.916">Creeping</tspan></text><text style="font-size:40px;font-style:normal;font-weight:400;fill:#000;fill-opacity:1;stroke:none;stroke-width:1px;stroke-linecap:butt;stroke-linejoin:miter;stroke-opacity:1;font-family:Bitstream Vera Sans" id="text3173" x="116.419" y="655.62" xml:space="preserve"><tspan id="tspan3175" x="116.419" y="655.62">Elastic</tspan></text><text style="font-size:40px;font-style:normal;font-weight:400;fill:#000;fill-opacity:1;stroke:none;stroke-width:1px;stroke-linecap:butt;stroke-linejoin:miter;stroke-opacity:1;font-family:Bitstream Vera Sans" id="text3177" x="120.032" y="865.48" xml:space="preserve"><tspan id="tspan3179" x="120.032" y="865.48">Viscoelastic</tspan></text><g id="g3187" transform="translate(1.5318227,-6.5499999e-6)"><path id="path3181" d="M 39.82739,655.62012 A 36.763744,36.763744 0 1 1 -33.700099,655.62012 A 36.763744,36.763744 0 1 1 39.82739,655.62012 z" style="fill:none;fill-opacity:1;stroke:#000;stroke-width:5;stroke-miterlimit:4;stroke-dasharray:none;stroke-opacity:1"/><path id="path3183" d="M 78.122958,520.8197 A 7.6591134,7.6591134 0 1 1 62.804731,520.8197 A 7.6591134,7.6591134 0 1 1 78.122958,520.8197 z" transform="translate(-67.400199,134.80042)" style="fill:#000;fill-opacity:1;stroke:#000;stroke-width:5;stroke-miterlimit:4;stroke-dasharray:none;stroke-opacity:1"/></g><g id="g3201" transform="translate(0,-3.0636389)"><path id="path3185" d="M 39.82739,655.62012 A 36.763744,36.763744 0 1 1 -33.700099,655.62012 A 36.763744,36.763744 0 1 1 39.82739,655.62012 z" transform="translate(742.934,3.0636323)" style="fill:none;fill-opacity:1;stroke:#000;stroke-width:5;stroke-miterlimit:4;stroke-dasharray:none;stroke-opacity:1"/><path id="path3191" d="M 717.90601,632.88984 C 774.08928,684.47765 774.08928,684.47765 774.08928,684.47765" style="fill:none;fill-rule:evenodd;stroke:#000;stroke-width:5.49415398;stroke-linecap:butt;stroke-linejoin:miter;stroke-miterlimit:4;stroke-dasharray:none;stroke-opacity:1"/><path id="path3193" d="M 774.08929,632.88984 C 717.90601,684.47765 717.90601,684.47765 717.90601,684.47765" style="fill:none;fill-rule:evenodd;stroke:#000;stroke-width:5.49415398;stroke-linecap:butt;stroke-linejoin:miter;stroke-miterlimit:4;stroke-dasharray:none;stroke-opacity:1"/></g></g></svg>