<svg xmlns="http://www.w3.org/2000/svg" xmlns:svg="http://www.w3.org/2000/svg" xmlns:xlink="http://www.w3.org/1999/xlink" id="svg2" width="337.5" height="270" version="1.0"><defs id="defs4"><marker id="Arrow2Lend" orient="auto" refX="0" refY="0" style="overflow:visible"><path id="path3450" d="M 8.7185878,4.0337352 -2.2072895,0.01601326 8.7185884,-4.0017078 c -1.7454984,2.3720609 -1.7354408,5.6174519 -6e-7,8.035443 z" transform="matrix(-1.1,0,0,-1.1,-1.1,0)" style="font-size:12px;fill-rule:evenodd;stroke-width:.625;stroke-linejoin:round"/></marker><marker id="Arrow2Mend" orient="auto" refX="0" refY="0" style="overflow:visible"><path id="path3456" d="M 8.7185878,4.0337352 -2.2072895,0.01601326 8.7185884,-4.0017078 c -1.7454984,2.3720609 -1.7354408,5.6174519 -6e-7,8.035443 z" transform="scale(-0.6,-0.6)" style="font-size:12px;fill-rule:evenodd;stroke-width:.625;stroke-linejoin:round"/></marker><marker id="Arrow1Mend" orient="auto" refX="0" refY="0" style="overflow:visible"><path id="path3438" d="M 0,0 5,-5 -12.5,0 5,5 0,0 z" transform="matrix(-0.4,0,0,-0.4,-4,0)" style="fill-rule:evenodd;stroke:#000;stroke-width:1pt;marker-start:none"/></marker><marker id="Arrow1Lend" orient="auto" refX="0" refY="0" style="overflow:visible"><path id="path3432" d="M 0,0 5,-5 -12.5,0 5,5 0,0 z" transform="matrix(-0.8,0,0,-0.8,-10,0)" style="fill-rule:evenodd;stroke:#000;stroke-width:1pt;marker-start:none"/></marker></defs><metadata id="metadata7"/><g id="layer2" transform="translate(0,-495)" style="display:inline"><g id="layer5" style="display:inline"><path style="fill:none;stroke:#1e6e96;stroke-width:1.875;stroke-linecap:butt;stroke-linejoin:round;stroke-miterlimit:4;stroke-opacity:1;stroke-dasharray:none" id="path3142" d="m 62.5,7.5 -50,100 100,-50 -50,-50" transform="translate(0,495)"/><path style="fill:none;stroke:#6101af;stroke-width:1.25;stroke-linecap:butt;stroke-linejoin:round;stroke-miterlimit:4;stroke-opacity:1;stroke-dasharray:none" id="path3146" d="m 37.5,57.5 25,25 25,-50 -50,25" transform="translate(0,495)"/><path id="path4028" d="m 12.5,727.5 110,0 -10,-100 -75,20 z" style="fill:none;stroke:#1e6e96;stroke-width:1.875;stroke-linecap:butt;stroke-linejoin:round;stroke-miterlimit:4;stroke-opacity:1;stroke-dasharray:none"/><path style="fill:none;stroke:#6101af;stroke-width:1px;stroke-linecap:butt;stroke-linejoin:miter;stroke-opacity:1" id="path4040" d="m 25,192.5 92.5,-10" transform="translate(0,495)"/><path style="fill:none;stroke:#6101af;stroke-width:1px;stroke-linecap:butt;stroke-linejoin:miter;stroke-opacity:1" id="path4042" d="m 75,142.5 -5,90" transform="translate(0,495)"/><path style="fill:none;stroke:#1e6e96;stroke-width:1.875;stroke-linecap:butt;stroke-linejoin:round;stroke-miterlimit:4;stroke-opacity:1;stroke-dasharray:none" id="path4058" d="m 234.99652,500 -50,75 60,37.5 -10,-112.5 50,62.5 -40,50"/><path style="fill:none;stroke:#1e6e96;stroke-width:1.875;stroke-linecap:butt;stroke-linejoin:miter;stroke-miterlimit:4;stroke-opacity:1;stroke-dasharray:3.75,3.75;stroke-dashoffset:0" id="path4066" d="m 184.99652,575 100,-12.5"/><path id="path4076" d="m 214.99652,592.5 52.5,-7.5 -30,-17.5 -25,25" style="fill:none;stroke:#6101af;stroke-width:1.25;stroke-linecap:butt;stroke-linejoin:round;stroke-miterlimit:4;stroke-opacity:1;stroke-dasharray:3.75,1.25;stroke-dashoffset:0"/><path style="fill:none;stroke:#6101af;stroke-width:1.25;stroke-linecap:butt;stroke-linejoin:round;stroke-miterlimit:4;stroke-opacity:1;stroke-dasharray:3.75,1.25;stroke-dashoffset:0" id="path4078" d="m 209.99652,537.5 27.5,30 20,-40 -47.5,10"/><path id="path4080" d="m 239.99652,557.5 27.5,27.5 -10,-57.5 -17.5,30" style="fill:none;stroke:#6101af;stroke-width:1.25;stroke-linecap:butt;stroke-linejoin:round;stroke-miterlimit:4;stroke-opacity:1;stroke-dasharray:none;stroke-dashoffset:0"/><path style="fill:none;stroke:#6101af;stroke-width:1.25;stroke-linecap:butt;stroke-linejoin:round;stroke-miterlimit:4;stroke-opacity:1;stroke-dasharray:none;stroke-dashoffset:0" id="path4082" d="m 212.49652,592.5 27.5,-35 -30,-20 2.5,55"/><path style="fill:none;stroke:#6101af;stroke-width:1.25;stroke-linecap:butt;stroke-linejoin:miter;stroke-miterlimit:4;stroke-opacity:1;stroke-dasharray:3.75,1.25;stroke-dashoffset:0" id="path4084" d="m 239.99652,557.5 -2.5,10"/><path style="fill:none;stroke:#1e6e96;stroke-width:1.875;stroke-linecap:butt;stroke-linejoin:round;stroke-miterlimit:4;stroke-opacity:1;stroke-dasharray:none" id="path4098" d="m 197.49652,737.5 75,0 0,-62.5 -75,0 z"/><path style="fill:none;stroke:#1e6e96;stroke-width:1.875;stroke-linecap:butt;stroke-linejoin:miter;stroke-miterlimit:4;stroke-opacity:1;stroke-dasharray:none" id="path4102" d="m 197.49652,675 37.5,-25 75,0 0,62.5 -37.5,25"/><path style="fill:none;stroke:#1e6e96;stroke-width:1.875;stroke-linecap:butt;stroke-linejoin:miter;stroke-miterlimit:4;stroke-opacity:1;stroke-dasharray:none" id="path4104" d="m 272.49652,675 37.5,-25"/><path style="fill:none;stroke:#1e6e96;stroke-width:1.875;stroke-linecap:butt;stroke-linejoin:miter;stroke-miterlimit:4;stroke-opacity:1;stroke-dasharray:5.625,1.875;stroke-dashoffset:0" id="path4106" d="m 234.99652,650 0,62.5 75,0"/><path style="fill:none;stroke:#1e6e96;stroke-width:1.875;stroke-linecap:butt;stroke-linejoin:miter;stroke-miterlimit:4;stroke-opacity:1;stroke-dasharray:5.625,1.875;stroke-dashoffset:0" id="path4108" d="m 234.99652,712.5 -37.5,25"/><path style="fill:none;stroke:#6101af;stroke-width:1.25;stroke-linecap:butt;stroke-linejoin:miter;stroke-miterlimit:4;stroke-opacity:1;stroke-dasharray:none" id="path4110" d="m 197.49652,705 75,0 37.5,-25"/><path style="fill:none;stroke:#6101af;stroke-width:1.25;stroke-linecap:butt;stroke-linejoin:miter;stroke-miterlimit:4;stroke-opacity:1;stroke-dasharray:3.75,1.25;stroke-dashoffset:0" id="path4112" d="m 309.99652,680 -75,0 -37.5,25"/><path style="fill:none;stroke:#6101af;stroke-width:1.25;stroke-linecap:butt;stroke-linejoin:miter;stroke-miterlimit:4;stroke-opacity:1;stroke-dasharray:3.75,1.25;stroke-dashoffset:0" id="path4114" d="m 272.49652,650 0,62.5 -37.5,25"/><path style="fill:none;stroke:#6101af;stroke-width:1.25;stroke-linecap:butt;stroke-linejoin:miter;stroke-miterlimit:4;stroke-opacity:1;stroke-dasharray:3.75,1.25;stroke-dashoffset:0" id="path4118" d="m 214.99652,662.5 0,62.5 75,0"/><path style="fill:none;stroke:#6101af;stroke-width:1.25;stroke-linecap:butt;stroke-linejoin:miter;stroke-miterlimit:4;stroke-opacity:1;stroke-dasharray:none" id="path4120" d="m 289.99652,725 0,-62.5 -75,0"/><path style="fill:none;stroke:#6101af;stroke-width:1.25;stroke-linecap:butt;stroke-linejoin:miter;stroke-miterlimit:4;stroke-opacity:1;stroke-dasharray:none" id="path4122" d="m 272.49652,650 -37.5,25 0,62.5"/><path style="fill:none;stroke:#6101af;stroke-width:1.25;stroke-linecap:butt;stroke-linejoin:miter;stroke-miterlimit:4;stroke-opacity:1;stroke-dasharray:3.75,1.25;stroke-dashoffset:0" id="path4124" d="m 214.99652,692.5 75,0"/><path style="fill:none;stroke:#6101af;stroke-width:1.25;stroke-linecap:butt;stroke-linejoin:miter;stroke-miterlimit:4;stroke-opacity:1;stroke-dasharray:3.75,1.25;stroke-dashoffset:0" id="path4126" d="m 272.49652,680 -37.5,25"/></g><g id="layer1" style="display:inline"><path style="fill:#f67f00;stroke:none;display:inline" id="path3150" d="m 27.5,5 a 2.5,2.5 0 1 1 -0.0035,-0.1317976 L 25,5 z" transform="translate(37.5,497.5)"/><path id="path3990" d="m 27.5,5 a 2.5,2.5 0 1 1 -0.0035,-0.1317976 L 25,5 z" transform="translate(37.5,497.5)" style="fill:#f67f00;stroke:none;display:inline"/><use id="use3992" width="495" height="270" x="0" y="0" transform="translate(50,50)" xlink:href="#path3990"/><use id="use3994" width="495" height="270" x="0" y="0" transform="translate(-100,50)" xlink:href="#use3992"/><path style="fill:#60cc0e;stroke:none" id="path3998" d="m 30,67.5 a 2.5,2.5 0 1 1 -0.0035,-0.131798 L 27.5,67.5 z" transform="translate(10,485)"/><path id="path4000" d="m 30,67.5 a 2.5,2.5 0 1 1 -0.0035,-0.131798 L 27.5,67.5 z" transform="translate(35,510)" style="fill:#60cc0e;stroke:none"/><path id="path4004" d="m 30,67.5 a 2.5,2.5 0 1 1 -0.0035,-0.131798 L 27.5,67.5 z" transform="translate(60,460)" style="fill:#60cc0e;stroke:none"/><use id="use4030" width="495" height="270" x="0" y="0" transform="translate(25,45)" xlink:href="#use3994"/><use id="use4032" width="495" height="270" x="0" y="0" transform="translate(100.00348,25.131798)" xlink:href="#use3994"/><use id="use4034" width="495" height="270" x="0" y="0" transform="translate(110,125)" xlink:href="#use3994"/><use id="use4036" width="495" height="270" x="0" y="0" transform="translate(0,125)" xlink:href="#use3994"/><path style="fill:#60cc0e;stroke:none" id="path4046" d="m 30,67.5 a 2.5,2.5 0 1 1 -6.42e-4,-0.05665" transform="translate(47.5,570)"/><path id="path4048" d="m 30,67.5 a 2.5,2.5 0 1 1 -0.0035,-0.131798 L 27.5,67.5 z" transform="translate(90,610)" style="fill:#60cc0e;stroke:none"/><path style="fill:#60cc0e;stroke:none" id="path4050" d="m 30,67.5 a 2.5,2.5 0 1 1 -0.0035,-0.131798 L 27.5,67.5 z" transform="translate(45,615)"/><path id="path4052" d="m 30,67.5 a 2.5,2.5 0 1 1 -2.82e-4,-0.03755 L 27.5,67.5 z" transform="translate(-2.5,620)" style="fill:#60cc0e;stroke:none"/><path style="fill:#60cc0e;stroke:none" id="path4054" d="m 30,67.5 a 2.5,2.5 0 1 1 -0.0035,-0.131798 L 27.5,67.5 z" transform="translate(42.5,660)"/><path style="fill:#f67f00;stroke:none;display:inline" id="path4068" d="m 27.5,5 a 2.5,2.5 0 1 1 -0.0035,-0.1317976 L 25,5 z" transform="translate(160,570.1318)"/><path id="path4070" d="m 27.5,5 a 2.5,2.5 0 1 1 -0.0035,-0.1317976 L 25,5 z" transform="translate(209.99652,495)" style="fill:#f67f00;stroke:none;display:inline"/><path style="fill:#f67f00;stroke:none;display:inline" id="path4072" d="m 27.5,5 a 2.5,2.5 0 1 1 -0.0035,-0.1317976 L 25,5 z" transform="translate(259.99652,557.5)"/><path id="path4074" d="m 27.5,5 a 2.5,2.5 0 1 1 -0.0035,-0.1317976 L 25,5 z" transform="translate(219.99652,607.5)" style="fill:#f67f00;stroke:none;display:inline"/><path style="fill:#60cc0e;stroke:none" id="path4086" d="m 30,67.5 a 2.5,2.5 0 1 1 -0.0035,-0.131798 L 27.5,67.5 z" transform="translate(182.49652,470)"/><path id="path4088" d="m 30,67.5 a 2.5,2.5 0 1 1 -0.0035,-0.131798 L 27.5,67.5 z" transform="translate(229.99652,460)" style="fill:#60cc0e;stroke:none"/><path style="fill:#60cc0e;stroke:none" id="path4090" d="m 30,67.5 a 2.5,2.5 0 1 1 -0.0035,-0.131798 L 27.5,67.5 z" transform="translate(239.99652,517.5)"/><path id="path4092" d="m 30,67.5 a 2.5,2.5 0 1 1 -0.0035,-0.131798 L 27.5,67.5 z" transform="translate(184.99652,525)" style="fill:#60cc0e;stroke:none"/><path style="fill:#60cc0e;stroke:none" id="path4094" d="m 30,67.5 a 2.5,2.5 0 1 1 -0.0035,-0.131798 L 27.5,67.5 z" transform="translate(209.99652,500)"/><path id="path4096" d="m 30,67.5 a 2.5,2.5 0 1 1 -0.0035,-0.131798 L 27.5,67.5 z" transform="translate(212.5,490.1318)" style="fill:#60cc0e;stroke:none"/><path style="fill:#f67f00;stroke:none;display:inline" id="path4128" d="m 27.5,5 a 2.5,2.5 0 1 1 -0.0035,-0.1317976 L 25,5 z" transform="translate(209.99652,645)"/><path id="path4130" d="m 27.5,5 a 2.5,2.5 0 1 1 -0.0035,-0.1317976 L 25,5 z" transform="translate(285,645.1318)" style="fill:#f67f00;stroke:none;display:inline"/><path style="fill:#f67f00;stroke:none;display:inline" id="path4132" d="m 27.5,5 a 2.5,2.5 0 1 1 -0.0035,-0.1317976 L 25,5 z" transform="translate(285,645.1318)"/><path id="path4134" d="m 27.5,5 a 2.5,2.5 0 1 1 -0.0035,-0.1317976 L 25,5 z" transform="translate(284.99652,707.5)" style="fill:#f67f00;stroke:none;display:inline"/><path style="fill:#f67f00;stroke:none;display:inline" id="path4136" d="m 27.5,5 a 2.5,2.5 0 1 1 -0.0035,-0.1317976 L 25,5 z" transform="translate(172.49652,732.5)"/><path id="path4138" d="m 27.5,5 a 2.5,2.5 0 1 1 -0.0035,-0.1317976 L 25,5 z" transform="translate(210,707.6318)" style="fill:#f67f00;stroke:none;display:inline"/><path style="fill:#f67f00;stroke:none;display:inline" id="path4140" d="m 27.5,5 a 2.5,2.5 0 1 1 -0.0035,-0.1317976 L 25,5 z" transform="translate(247.49652,732.5)"/><path id="path4142" d="m 27.5,5 a 2.5,2.5 0 1 1 -0.0035,-0.1317976 L 25,5 z" transform="translate(247.49652,670)" style="fill:#f67f00;stroke:none;display:inline"/><path style="fill:#f67f00;stroke:none;display:inline" id="path4144" d="m 27.5,5 a 2.5,2.5 0 1 1 -0.0035,-0.1317976 L 25,5 z" transform="translate(247.49652,670)"/><path id="path4146" d="m 27.5,5 a 2.5,2.5 0 1 1 -0.0035,-0.1317976 L 25,5 z" transform="translate(172.49652,670)" style="fill:#f67f00;stroke:none;display:inline"/><path style="fill:#60cc0e;stroke:none" id="path4148" d="m 30,67.5 a 2.5,2.5 0 1 1 -0.0035,-0.131798 L 27.5,67.5 z" transform="translate(187.49652,595)"/><path id="path4150" d="m 30,67.5 a 2.5,2.5 0 1 1 -0.0035,-0.131798 L 27.5,67.5 z" transform="translate(244.99652,582.5)" style="fill:#60cc0e;stroke:none"/><path style="fill:#60cc0e;stroke:none" id="path4152" d="m 30,67.5 a 2.5,2.5 0 1 1 -0.0035,-0.131798 L 27.5,67.5 z" transform="translate(262.49652,595)"/><path id="path4154" d="m 30,67.5 a 2.5,2.5 0 1 1 -0.0035,-0.131798 L 27.5,67.5 z" transform="translate(207.49652,607.5)" style="fill:#60cc0e;stroke:none"/><path style="fill:#60cc0e;stroke:none" id="path4156" d="m 30,67.5 a 2.5,2.5 0 1 1 -0.0035,-0.131798 L 27.5,67.5 z" transform="translate(227.49652,595)"/><path id="path4158" d="m 30,67.5 a 2.5,2.5 0 1 1 -0.0035,-0.131798 L 27.5,67.5 z" transform="translate(262.49652,625)" style="fill:#60cc0e;stroke:none"/><path style="fill:#60cc0e;stroke:none" id="path4160" d="m 30,67.5 a 2.5,2.5 0 1 1 -0.0035,-0.131798 L 27.5,67.5 z" transform="translate(282.5,612.6318)"/><path id="path4162" d="m 30,67.5 a 2.5,2.5 0 1 1 -0.0035,-0.131798 L 27.5,67.5 z" transform="translate(262.49652,657.5)" style="fill:#60cc0e;stroke:none"/><path style="fill:#60cc0e;stroke:none" id="path4164" d="m 30,67.5 a 2.5,2.5 0 1 1 -0.0035,-0.131798 L 27.5,67.5 z" transform="translate(244.99652,637.5)"/><path id="path4166" d="m 30,67.5 a 2.5,2.5 0 1 1 -0.0035,-0.131798 L 27.5,67.5 z" transform="translate(207.49652,670)" style="fill:#60cc0e;stroke:none"/><path style="fill:#60cc0e;stroke:none" id="path4168" d="m 30,67.5 a 2.5,2.5 0 1 1 -0.0035,-0.131798 L 27.5,67.5 z" transform="translate(224.99652,625)"/><path id="path4170" d="m 30,67.5 a 2.5,2.5 0 1 1 -0.0035,-0.131798 L 27.5,67.5 z" transform="translate(169.99652,637.5)" style="fill:#60cc0e;stroke:none"/><path style="fill:#60cc0e;stroke:none" id="path4172" d="m 30,67.5 a 2.5,2.5 0 1 1 -0.0035,-0.131798 L 27.5,67.5 z" transform="translate(187.49652,657.5)"/><path id="path4174" d="m 30,67.5 a 2.5,2.5 0 1 1 -0.0035,-0.131798 L 27.5,67.5 z" transform="translate(187.49652,625)" style="fill:#60cc0e;stroke:none"/><path style="fill:#60cc0e;stroke:none" id="path4176" d="m 30,67.5 a 2.5,2.5 0 1 1 -0.0035,-0.131798 L 27.5,67.5 z" transform="translate(207.5,612.6318)"/><path id="path4178" d="m 30,67.5 a 2.5,2.5 0 1 1 -0.0035,-0.131798 L 27.5,67.5 z" transform="translate(207.49652,637.5)" style="fill:#60cc0e;stroke:none"/><path style="fill:#60cc0e;stroke:none" id="path4180" d="m 30,67.5 a 2.5,2.5 0 1 1 -0.0035,-0.131798 L 27.5,67.5 z" transform="translate(245,612.6318)"/><path id="path4182" d="m 30,67.5 a 2.5,2.5 0 1 1 -0.0035,-0.131798 L 27.5,67.5 z" transform="translate(244.99652,645)" style="fill:#60cc0e;stroke:none"/><path style="fill:#60cc0e;stroke:none" id="path4184" d="m 30,67.5 a 2.5,2.5 0 1 1 -0.0035,-0.131798 L 27.5,67.5 z" transform="translate(227.49652,657.5)"/></g></g></svg>