<svg xmlns="http://www.w3.org/2000/svg" xmlns:svg="http://www.w3.org/2000/svg" id="svg2" width="338.5" height="138.5" version="1.1"><defs id="defs4"><marker id="Arrow2Mend" orient="auto" refX="0" refY="0" style="overflow:visible"><path id="path3863" d="M 8.7185878,4.0337352 -2.2072895,0.01601326 8.7185884,-4.0017078 c -1.7454984,2.3720609 -1.7354408,5.6174519 -6e-7,8.035443 z" transform="scale(-0.6,-0.6)" style="font-size:12px;fill-rule:evenodd;stroke-width:.625;stroke-linejoin:round"/></marker><marker id="Arrow2Mstart" orient="auto" refX="0" refY="0" style="overflow:visible"><path id="path3860" d="M 8.7185878,4.0337352 -2.2072895,0.01601326 8.7185884,-4.0017078 c -1.7454984,2.3720609 -1.7354408,5.6174519 -6e-7,8.035443 z" transform="scale(0.6,0.6)" style="font-size:12px;fill-rule:evenodd;stroke-width:.625;stroke-linejoin:round"/></marker></defs><metadata id="metadata7"/><g id="layer1" transform="translate(-37,-839.362)"><path style="fill:#60cc0e;stroke:#3b7d08;stroke-width:1px;stroke-linecap:butt;stroke-linejoin:miter;stroke-opacity:1" id="path3017" d="m 37.5,839.862 220,0 -65,25 -155,0"/><rect style="fill:#ffbc69;fill-opacity:1;stroke:none" id="rect3021" width="337.5" height="112.5" x="37.5" y="64.5" transform="translate(0,800.362)"/><path style="fill:#78bbff;stroke:#1e6e96;stroke-width:1px;stroke-linecap:butt;stroke-linejoin:miter;stroke-opacity:1" id="path3019" d="m 375,839.862 -110,0 c -75,0 -145,85 -187.5,137.5 l 37.5,0 c 35,-42.5 85,-112.5 150,-112.5 l 110,0"/></g><g id="layer2" transform="translate(-37,-39)"><text style="font-size:14px;font-style:normal;font-variant:normal;font-weight:700;font-stretch:normal;text-align:start;line-height:125%;letter-spacing:0;word-spacing:0;writing-mode:lr-tb;text-anchor:start;fill:#000;fill-opacity:1;stroke:none;font-family:Nimbus Sans L;-inkscape-font-specification:Nimbus Sans L Bold" id="text3050" x="62.5" y="57" xml:space="preserve"><tspan id="tspan3052" x="62.5" y="57">Continental crust</tspan></text><text style="font-size:14px;font-style:normal;font-variant:normal;font-weight:700;font-stretch:normal;text-align:start;line-height:125%;letter-spacing:0;word-spacing:0;writing-mode:lr-tb;text-anchor:start;fill:#000;fill-opacity:1;stroke:none;font-family:Nimbus Sans L;-inkscape-font-specification:Nimbus Sans L Bold" id="text3042" x="260" y="57" xml:space="preserve"><tspan id="tspan3044" x="260" y="57">Oceanic crust</tspan></text><text style="font-size:14px;font-style:normal;font-variant:normal;font-weight:700;font-stretch:normal;text-align:start;line-height:125%;letter-spacing:0;word-spacing:0;writing-mode:lr-tb;text-anchor:start;fill:#000;fill-opacity:1;stroke:none;font-family:Nimbus Sans L;-inkscape-font-specification:Nimbus Sans L Bold" id="text3046" x="245" y="119.5" xml:space="preserve"><tspan id="tspan3048" x="245" y="119.5">Mantle</tspan></text><path style="fill:none;stroke:#000;stroke-width:1px;stroke-linecap:butt;stroke-linejoin:miter;stroke-opacity:1;marker-start:none;marker-end:url(#Arrow2Mend)" id="path3063" d="M 182.5,84.5 140,127"/></g></svg>