<svg xmlns="http://www.w3.org/2000/svg" xmlns:svg="http://www.w3.org/2000/svg" xmlns:xlink="http://www.w3.org/1999/xlink" id="svg2" width="393.5" height="235.25" version="1.1"><defs id="defs4"><marker style="overflow:visible" id="Arrow2Mend" orient="auto" refX="0" refY="0"><path style="font-size:12px;fill-rule:evenodd;stroke-width:.625;stroke-linejoin:round" id="path3863" d="M 8.7185878,4.0337352 -2.2072895,0.01601326 8.7185884,-4.0017078 c -1.7454984,2.3720609 -1.7354408,5.6174519 -6e-7,8.035443 z" transform="scale(-0.6,-0.6)"/></marker><marker style="overflow:visible" id="Arrow2Mstart" orient="auto" refX="0" refY="0"><path style="font-size:12px;fill-rule:evenodd;stroke-width:.625;stroke-linejoin:round" id="path3860" d="M 8.7185878,4.0337352 -2.2072895,0.01601326 8.7185884,-4.0017078 c -1.7454984,2.3720609 -1.7354408,5.6174519 -6e-7,8.035443 z" transform="scale(0.6,0.6)"/></marker><marker style="overflow:visible" id="Arrow2Mend-5" orient="auto" refX="0" refY="0"><path style="font-size:12px;fill-rule:evenodd;stroke-width:.625;stroke-linejoin:round" id="path3863-7" d="M 8.7185878,4.0337352 -2.2072895,0.01601326 8.7185884,-4.0017078 c -1.7454984,2.3720609 -1.7354408,5.6174519 -6e-7,8.035443 z" transform="scale(-0.6,-0.6)"/></marker><marker style="overflow:visible" id="Arrow2Mstart-2" orient="auto" refX="0" refY="0"><path style="font-size:12px;fill-rule:evenodd;stroke-width:.625;stroke-linejoin:round" id="path3860-5" d="M 8.7185878,4.0337352 -2.2072895,0.01601326 8.7185884,-4.0017078 c -1.7454984,2.3720609 -1.7354408,5.6174519 -6e-7,8.035443 z" transform="scale(0.6,0.6)"/></marker><marker style="overflow:visible" id="Arrow2Mstart-9" orient="auto" refX="0" refY="0"><path style="font-size:12px;fill-rule:evenodd;stroke-width:.625;stroke-linejoin:round" id="path3860-0" d="M 8.7185878,4.0337352 -2.2072895,0.01601326 8.7185884,-4.0017078 c -1.7454984,2.3720609 -1.7354408,5.6174519 -6e-7,8.035443 z" transform="scale(0.6,0.6)"/></marker><marker style="overflow:visible" id="Arrow2Mstart-5" orient="auto" refX="0" refY="0"><path style="font-size:12px;fill-rule:evenodd;stroke-width:.625;stroke-linejoin:round" id="path3860-6" d="M 8.7185878,4.0337352 -2.2072895,0.01601326 8.7185884,-4.0017078 c -1.7454984,2.3720609 -1.7354408,5.6174519 -6e-7,8.035443 z" transform="scale(0.6,0.6)"/></marker><marker style="overflow:visible" id="Arrow2Mstart-1" orient="auto" refX="0" refY="0"><path style="font-size:12px;fill-rule:evenodd;stroke-width:.625;stroke-linejoin:round" id="path3860-04" d="M 8.7185878,4.0337352 -2.2072895,0.01601326 8.7185884,-4.0017078 c -1.7454984,2.3720609 -1.7354408,5.6174519 -6e-7,8.035443 z" transform="scale(0.6,0.6)"/></marker><marker style="overflow:visible" id="Arrow2Mstart-52" orient="auto" refX="0" refY="0"><path style="font-size:12px;fill-rule:evenodd;stroke-width:.625;stroke-linejoin:round" id="path3860-4" d="M 8.7185878,4.0337352 -2.2072895,0.01601326 8.7185884,-4.0017078 c -1.7454984,2.3720609 -1.7354408,5.6174519 -6e-7,8.035443 z" transform="scale(0.6,0.6)"/></marker><marker style="overflow:visible" id="Arrow2Mstart-57" orient="auto" refX="0" refY="0"><path style="font-size:12px;fill-rule:evenodd;stroke-width:.625;stroke-linejoin:round" id="path3860-56" d="M 8.7185878,4.0337352 -2.2072895,0.01601326 8.7185884,-4.0017078 c -1.7454984,2.3720609 -1.7354408,5.6174519 -6e-7,8.035443 z" transform="scale(0.6,0.6)"/></marker><marker style="overflow:visible" id="Arrow2Mstart-7" orient="auto" refX="0" refY="0"><path style="font-size:12px;fill-rule:evenodd;stroke-width:.625;stroke-linejoin:round" id="path3860-57" d="M 8.7185878,4.0337352 -2.2072895,0.01601326 8.7185884,-4.0017078 c -1.7454984,2.3720609 -1.7354408,5.6174519 -6e-7,8.035443 z" transform="scale(0.6,0.6)"/></marker><marker style="overflow:visible" id="Arrow2Mstart-3" orient="auto" refX="0" refY="0"><path style="font-size:12px;fill-rule:evenodd;stroke-width:.625;stroke-linejoin:round" id="path3860-9" d="M 8.7185878,4.0337352 -2.2072895,0.01601326 8.7185884,-4.0017078 c -1.7454984,2.3720609 -1.7354408,5.6174519 -6e-7,8.035443 z" transform="scale(0.6,0.6)"/></marker><marker style="overflow:visible" id="Arrow2Mstart-4" orient="auto" refX="0" refY="0"><path style="font-size:12px;fill-rule:evenodd;stroke-width:.625;stroke-linejoin:round" id="path3860-2" d="M 8.7185878,4.0337352 -2.2072895,0.01601326 8.7185884,-4.0017078 c -1.7454984,2.3720609 -1.7354408,5.6174519 -6e-7,8.035443 z" transform="scale(0.6,0.6)"/></marker><marker style="overflow:visible" id="Arrow2Mstart-42" orient="auto" refX="0" refY="0"><path style="font-size:12px;fill-rule:evenodd;stroke-width:.625;stroke-linejoin:round" id="path3860-55" d="M 8.7185878,4.0337352 -2.2072895,0.01601326 8.7185884,-4.0017078 c -1.7454984,2.3720609 -1.7354408,5.6174519 -6e-7,8.035443 z" transform="scale(0.6,0.6)"/></marker><marker style="overflow:visible" id="Arrow2Mend-5-8" orient="auto" refX="0" refY="0"><path style="font-size:12px;fill-rule:evenodd;stroke-width:.625;stroke-linejoin:round" id="path3863-7-1" d="M 8.7185878,4.0337352 -2.2072895,0.01601326 8.7185884,-4.0017078 c -1.7454984,2.3720609 -1.7354408,5.6174519 -6e-7,8.035443 z" transform="scale(-0.6,-0.6)"/></marker><marker style="overflow:visible" id="Arrow2Mend-5-4" orient="auto" refX="0" refY="0"><path style="font-size:12px;fill-rule:evenodd;stroke-width:.625;stroke-linejoin:round" id="path3863-7-4" d="M 8.7185878,4.0337352 -2.2072895,0.01601326 8.7185884,-4.0017078 c -1.7454984,2.3720609 -1.7354408,5.6174519 -6e-7,8.035443 z" transform="scale(-0.6,-0.6)"/></marker><marker style="overflow:visible" id="Arrow2Mend-5-3" orient="auto" refX="0" refY="0"><path style="font-size:12px;fill-rule:evenodd;stroke-width:.625;stroke-linejoin:round" id="path3863-7-9" d="M 8.7185878,4.0337352 -2.2072895,0.01601326 8.7185884,-4.0017078 c -1.7454984,2.3720609 -1.7354408,5.6174519 -6e-7,8.035443 z" transform="scale(-0.6,-0.6)"/></marker><marker style="overflow:visible" id="Arrow2Mend-5-6" orient="auto" refX="0" refY="0"><path style="font-size:12px;fill-rule:evenodd;stroke-width:.625;stroke-linejoin:round" id="path3863-7-2" d="M 8.7185878,4.0337352 -2.2072895,0.01601326 8.7185884,-4.0017078 c -1.7454984,2.3720609 -1.7354408,5.6174519 -6e-7,8.035443 z" transform="scale(-0.6,-0.6)"/></marker><marker style="overflow:visible" id="Arrow2Mstart-8" orient="auto" refX="0" refY="0"><path style="font-size:12px;fill-rule:evenodd;stroke-width:.625;stroke-linejoin:round" id="path3860-62" d="M 8.7185878,4.0337352 -2.2072895,0.01601326 8.7185884,-4.0017078 c -1.7454984,2.3720609 -1.7354408,5.6174519 -6e-7,8.035443 z" transform="scale(0.6,0.6)"/></marker><marker style="overflow:visible" id="Arrow2MendL" orient="auto" refX="0" refY="0"><path style="font-size:12px;fill:#c90003;fill-rule:evenodd;stroke:#c90003;stroke-width:.625;stroke-linejoin:round" id="path3276" d="M 8.7185878,4.0337352 -2.2072895,0.01601326 8.7185884,-4.0017078 c -1.7454984,2.3720609 -1.7354408,5.6174519 -6e-7,8.035443 z" transform="scale(-0.6,-0.6)"/></marker><marker style="overflow:visible" id="Arrow2Mstartd" orient="auto" refX="0" refY="0"><path style="font-size:12px;fill:#c90003;fill-rule:evenodd;stroke:#c90003;stroke-width:.625;stroke-linejoin:round" id="path3429" d="M 8.7185878,4.0337352 -2.2072895,0.01601326 8.7185884,-4.0017078 c -1.7454984,2.3720609 -1.7354408,5.6174519 -6e-7,8.035443 z" transform="scale(0.6,0.6)"/></marker><marker style="overflow:visible" id="Arrow2Mstartk" orient="auto" refX="0" refY="0"><path style="font-size:12px;fill:#6101af;fill-rule:evenodd;stroke:#6101af;stroke-width:.625;stroke-linejoin:round" id="path3584" d="M 8.7185878,4.0337352 -2.2072895,0.01601326 8.7185884,-4.0017078 c -1.7454984,2.3720609 -1.7354408,5.6174519 -6e-7,8.035443 z" transform="scale(0.6,0.6)"/></marker><marker style="overflow:visible" id="Arrow2Mendi" orient="auto" refX="0" refY="0"><path style="font-size:12px;fill:#6101af;fill-rule:evenodd;stroke:#6101af;stroke-width:.625;stroke-linejoin:round" id="path3587" d="M 8.7185878,4.0337352 -2.2072895,0.01601326 8.7185884,-4.0017078 c -1.7454984,2.3720609 -1.7354408,5.6174519 -6e-7,8.035443 z" transform="scale(-0.6,-0.6)"/></marker><marker style="overflow:visible" id="Arrow2Mend-5M" orient="auto" refX="0" refY="0"><path style="font-size:12px;fill:#6101af;fill-rule:evenodd;stroke:#6101af;stroke-width:.625;stroke-linejoin:round" id="path3590" d="M 8.7185878,4.0337352 -2.2072895,0.01601326 8.7185884,-4.0017078 c -1.7454984,2.3720609 -1.7354408,5.6174519 -6e-7,8.035443 z" transform="scale(-0.6,-0.6)"/></marker><marker style="overflow:visible" id="Arrow2Mend-5X" orient="auto" refX="0" refY="0"><path style="font-size:12px;fill:#6101af;fill-rule:evenodd;stroke:#6101af;stroke-width:.625;stroke-linejoin:round" id="path3593" d="M 8.7185878,4.0337352 -2.2072895,0.01601326 8.7185884,-4.0017078 c -1.7454984,2.3720609 -1.7354408,5.6174519 -6e-7,8.035443 z" transform="scale(-0.6,-0.6)"/></marker><marker style="overflow:visible" id="Arrow2Mend-5l" orient="auto" refX="0" refY="0"><path style="font-size:12px;fill:#6101af;fill-rule:evenodd;stroke:#6101af;stroke-width:.625;stroke-linejoin:round" id="path3596" d="M 8.7185878,4.0337352 -2.2072895,0.01601326 8.7185884,-4.0017078 c -1.7454984,2.3720609 -1.7354408,5.6174519 -6e-7,8.035443 z" transform="scale(-0.6,-0.6)"/></marker><marker style="overflow:visible" id="Arrow2Mend-5P" orient="auto" refX="0" refY="0"><path style="font-size:12px;fill:#6101af;fill-rule:evenodd;stroke:#6101af;stroke-width:.625;stroke-linejoin:round" id="path3599" d="M 8.7185878,4.0337352 -2.2072895,0.01601326 8.7185884,-4.0017078 c -1.7454984,2.3720609 -1.7354408,5.6174519 -6e-7,8.035443 z" transform="scale(-0.6,-0.6)"/></marker><marker style="overflow:visible" id="Arrow2Mend-5O" orient="auto" refX="0" refY="0"><path style="font-size:12px;fill:#6101af;fill-rule:evenodd;stroke:#6101af;stroke-width:.625;stroke-linejoin:round" id="path3602" d="M 8.7185878,4.0337352 -2.2072895,0.01601326 8.7185884,-4.0017078 c -1.7454984,2.3720609 -1.7354408,5.6174519 -6e-7,8.035443 z" transform="scale(-0.6,-0.6)"/></marker><marker style="overflow:visible" id="Arrow2MstartS" orient="auto" refX="0" refY="0"><path style="font-size:12px;fill:#6101af;fill-rule:evenodd;stroke:#6101af;stroke-width:.625;stroke-linejoin:round" id="path3605" d="M 8.7185878,4.0337352 -2.2072895,0.01601326 8.7185884,-4.0017078 c -1.7454984,2.3720609 -1.7354408,5.6174519 -6e-7,8.035443 z" transform="scale(0.6,0.6)"/></marker><marker style="overflow:visible" id="Arrow2Mstartg" orient="auto" refX="0" refY="0"><path style="font-size:12px;fill:#6101af;fill-rule:evenodd;stroke:#6101af;stroke-width:.625;stroke-linejoin:round" id="path3608" d="M 8.7185878,4.0337352 -2.2072895,0.01601326 8.7185884,-4.0017078 c -1.7454984,2.3720609 -1.7354408,5.6174519 -6e-7,8.035443 z" transform="scale(0.6,0.6)"/></marker><marker style="overflow:visible" id="Arrow2Mend-59" orient="auto" refX="0" refY="0"><path style="font-size:12px;fill:#6101af;fill-rule:evenodd;stroke:#6101af;stroke-width:.625;stroke-linejoin:round" id="path3611" d="M 8.7185878,4.0337352 -2.2072895,0.01601326 8.7185884,-4.0017078 c -1.7454984,2.3720609 -1.7354408,5.6174519 -6e-7,8.035443 z" transform="scale(-0.6,-0.6)"/></marker><marker style="overflow:visible" id="Arrow2Mstartf" orient="auto" refX="0" refY="0"><path style="font-size:12px;fill:#6101af;fill-rule:evenodd;stroke:#6101af;stroke-width:.625;stroke-linejoin:round" id="path3614" d="M 8.7185878,4.0337352 -2.2072895,0.01601326 8.7185884,-4.0017078 c -1.7454984,2.3720609 -1.7354408,5.6174519 -6e-7,8.035443 z" transform="scale(0.6,0.6)"/></marker><marker style="overflow:visible" id="Arrow2Mstarto" orient="auto" refX="0" refY="0"><path style="font-size:12px;fill:#6101af;fill-rule:evenodd;stroke:#6101af;stroke-width:.625;stroke-linejoin:round" id="path3617" d="M 8.7185878,4.0337352 -2.2072895,0.01601326 8.7185884,-4.0017078 c -1.7454984,2.3720609 -1.7354408,5.6174519 -6e-7,8.035443 z" transform="scale(0.6,0.6)"/></marker><marker style="overflow:visible" id="Arrow2MstartW" orient="auto" refX="0" refY="0"><path style="font-size:12px;fill:#6101af;fill-rule:evenodd;stroke:#6101af;stroke-width:.625;stroke-linejoin:round" id="path3620" d="M 8.7185878,4.0337352 -2.2072895,0.01601326 8.7185884,-4.0017078 c -1.7454984,2.3720609 -1.7354408,5.6174519 -6e-7,8.035443 z" transform="scale(0.6,0.6)"/></marker><marker style="overflow:visible" id="Arrow2MstartB" orient="auto" refX="0" refY="0"><path style="font-size:12px;fill:#6101af;fill-rule:evenodd;stroke:#6101af;stroke-width:.625;stroke-linejoin:round" id="path3623" d="M 8.7185878,4.0337352 -2.2072895,0.01601326 8.7185884,-4.0017078 c -1.7454984,2.3720609 -1.7354408,5.6174519 -6e-7,8.035443 z" transform="scale(0.6,0.6)"/></marker><marker style="overflow:visible" id="Arrow2Mend-5A" orient="auto" refX="0" refY="0"><path style="font-size:12px;fill:#6101af;fill-rule:evenodd;stroke:#6101af;stroke-width:.625;stroke-linejoin:round" id="path3626" d="M 8.7185878,4.0337352 -2.2072895,0.01601326 8.7185884,-4.0017078 c -1.7454984,2.3720609 -1.7354408,5.6174519 -6e-7,8.035443 z" transform="scale(-0.6,-0.6)"/></marker><marker style="overflow:visible" id="Arrow2MstartE" orient="auto" refX="0" refY="0"><path style="font-size:12px;fill:#6101af;fill-rule:evenodd;stroke:#6101af;stroke-width:.625;stroke-linejoin:round" id="path3629" d="M 8.7185878,4.0337352 -2.2072895,0.01601326 8.7185884,-4.0017078 c -1.7454984,2.3720609 -1.7354408,5.6174519 -6e-7,8.035443 z" transform="scale(0.6,0.6)"/></marker></defs><metadata id="metadata7"/><g style="display:inline" id="layer1" transform="translate(-3.25,-813.862)"><rect id="rect3021" width="375" height="187.5" x="12.5" y="52" transform="translate(0,800.362)" style="fill:#ffbc69;fill-opacity:1;stroke:none;display:inline"/><path id="path3017" d="m 12.5,814.862 262.5,0 -62.5,37.5 -200,0" style="fill:#60cc0e;stroke:#3b7d08;stroke-width:2;stroke-linecap:butt;stroke-linejoin:miter;stroke-miterlimit:4;stroke-opacity:1;stroke-dasharray:none;display:inline"/><path id="path3019" d="m 387.5,814.862 -112.5,0 c -75,0 -207.5,172.5 -250,225 l 57.5,0 c 50,-62.5 142.5,-187.5 205,-187.5 l 100,0" style="fill:#78bbff;stroke:#1e6e96;stroke-width:2;stroke-linecap:butt;stroke-linejoin:miter;stroke-miterlimit:4;stroke-opacity:1;stroke-dasharray:none;display:inline"/></g><g style="display:none" id="layer2" transform="translate(-3.25,-13.5)"><text id="text3050" x="50" y="39.5" xml:space="preserve" style="font-size:14px;font-style:normal;font-variant:normal;font-weight:700;font-stretch:normal;text-align:start;line-height:125%;letter-spacing:0;word-spacing:0;writing-mode:lr-tb;text-anchor:start;fill:#000;fill-opacity:1;stroke:none;display:inline;font-family:Nimbus Sans L;-inkscape-font-specification:Nimbus Sans L Bold"><tspan id="tspan3052" x="50" y="39.5">Continental crust</tspan></text><text id="text3042" x="275" y="39.5" xml:space="preserve" style="font-size:14px;font-style:normal;font-variant:normal;font-weight:700;font-stretch:normal;text-align:start;line-height:125%;letter-spacing:0;word-spacing:0;writing-mode:lr-tb;text-anchor:start;fill:#000;fill-opacity:1;stroke:none;display:inline;font-family:Nimbus Sans L;-inkscape-font-specification:Nimbus Sans L Bold"><tspan id="tspan3044" x="275" y="39.5">Oceanic crust</tspan></text><text id="text3046" x="262.5" y="927.362" transform="translate(0,-800.362)" xml:space="preserve" style="font-size:14px;font-style:normal;font-variant:normal;font-weight:700;font-stretch:normal;text-align:start;line-height:125%;letter-spacing:0;word-spacing:0;writing-mode:lr-tb;text-anchor:start;fill:#000;fill-opacity:1;stroke:none;display:inline;font-family:Nimbus Sans L;-inkscape-font-specification:Nimbus Sans L Bold"><tspan id="tspan3048" x="262.5" y="927.362">Mantle</tspan></text><path id="path3063" d="m 187.5,87 -50,52.5" style="fill:none;stroke:#000;stroke-width:2;stroke-linecap:butt;stroke-linejoin:miter;stroke-miterlimit:4;stroke-opacity:1;stroke-dasharray:none;marker-start:none;marker-end:url(#Arrow2Mend);display:inline"/></g><g style="display:inline" id="layer4" transform="translate(-3.25,-13.5)"><path id="path4747" d="M 232.5,17 190,44.5" style="fill:none;stroke:#c90003;stroke-width:2;stroke-linecap:butt;stroke-linejoin:miter;stroke-miterlimit:4;stroke-opacity:1;stroke-dasharray:none;marker-start:url(#Arrow2Mstartd)"/><path id="path4749" d="M 255,22 210,49.5" style="fill:none;stroke:#c90003;stroke-width:2;stroke-linecap:butt;stroke-linejoin:miter;stroke-miterlimit:4;stroke-opacity:1;stroke-dasharray:none;marker-end:url(#Arrow2MendL)"/></g><g style="display:none" id="layer5" transform="translate(-3.25,-13.5)"><path id="path4747-6" d="m 85,954.862 -32.5,37.5" transform="translate(0,-800.362)" style="fill:none;stroke:#6101af;stroke-width:2;stroke-linecap:butt;stroke-linejoin:miter;stroke-miterlimit:4;stroke-opacity:1;stroke-dasharray:none;marker-start:url(#Arrow2Mstartg);display:inline"/><path id="path4749-2" d="m 97.5,964.862 -32.5,37.5" transform="translate(0,-800.362)" style="fill:none;stroke:#6101af;stroke-width:2;stroke-linecap:butt;stroke-linejoin:miter;stroke-miterlimit:4;stroke-opacity:1;stroke-dasharray:none;marker-end:url(#Arrow2Mendi);display:inline"/><path id="path4747-6-5" d="M 172.5,64.5 142.5,92" style="fill:none;stroke:#6101af;stroke-width:2;stroke-linecap:butt;stroke-linejoin:miter;stroke-miterlimit:4;stroke-opacity:1;stroke-dasharray:none;marker-start:url(#Arrow2Mstartf);display:inline"/><path id="path4747-6-6" d="m 187.5,69.5 -30,30" style="fill:none;stroke:#6101af;stroke-width:2;stroke-linecap:butt;stroke-linejoin:miter;stroke-miterlimit:4;stroke-opacity:1;stroke-dasharray:none;marker-start:none;marker-end:url(#Arrow2Mend-59);display:inline"/><path id="path4747-6-1" d="m 122.5,179.5 -30,35" style="fill:none;stroke:#6101af;stroke-width:2;stroke-linecap:butt;stroke-linejoin:miter;stroke-miterlimit:4;stroke-opacity:1;stroke-dasharray:none;marker-start:none;marker-end:url(#Arrow2Mend-5P);display:inline"/><path id="path4747-6-3" d="M 165,129.5 137.5,162" style="fill:none;stroke:#6101af;stroke-width:2;stroke-linecap:butt;stroke-linejoin:miter;stroke-miterlimit:4;stroke-opacity:1;stroke-dasharray:none;marker-start:none;marker-end:url(#Arrow2Mend-5O);display:inline"/><path id="path4747-6-2" d="M 132.5,189.5 105,222" style="fill:none;stroke:#6101af;stroke-width:2;stroke-linecap:butt;stroke-linejoin:miter;stroke-miterlimit:4;stroke-opacity:1;stroke-dasharray:none;marker-start:url(#Arrow2MstartS);display:inline"/><path id="path4747-6-4" d="m 175,139.5 -25,30" style="fill:none;stroke:#6101af;stroke-width:2;stroke-linecap:butt;stroke-linejoin:miter;stroke-miterlimit:4;stroke-opacity:1;stroke-dasharray:none;marker-start:url(#Arrow2Mstarto);display:inline"/><path id="path4747-6-8" d="m 375,59.5 -50,0" style="fill:none;stroke:#6101af;stroke-width:2;stroke-linecap:butt;stroke-linejoin:miter;stroke-miterlimit:4;stroke-opacity:1;stroke-dasharray:none;marker-start:url(#Arrow2MstartB);display:inline"/><path id="path4747-6-9" d="M 297.5,57 250,72" style="fill:none;stroke:#6101af;stroke-width:2;stroke-linecap:butt;stroke-linejoin:miter;stroke-miterlimit:4;stroke-opacity:1;stroke-dasharray:none;marker-start:url(#Arrow2MstartW);display:inline"/><path id="path4747-6-9-1" d="m 220,94.5 -30,30" style="fill:none;stroke:#6101af;stroke-width:2;stroke-linecap:butt;stroke-linejoin:miter;stroke-miterlimit:4;stroke-opacity:1;stroke-dasharray:none;marker-start:url(#Arrow2Mstartk);display:inline"/><path id="path4747-6-3-4" d="m 207.5,84.5 -30,30" style="fill:none;stroke:#6101af;stroke-width:2;stroke-linecap:butt;stroke-linejoin:miter;stroke-miterlimit:4;stroke-opacity:1;stroke-dasharray:none;marker-start:none;marker-end:url(#Arrow2Mend-5M);display:inline"/><path id="path4747-6-3-2" d="M 295,42 242.5,57" style="fill:none;stroke:#6101af;stroke-width:2;stroke-linecap:butt;stroke-linejoin:miter;stroke-miterlimit:4;stroke-opacity:1;stroke-dasharray:none;marker-start:none;marker-end:url(#Arrow2Mend-5l);display:inline"/><path id="path4747-6-3-8" d="m 375,44.5 -50,0" style="fill:none;stroke:#6101af;stroke-width:2;stroke-linecap:butt;stroke-linejoin:miter;stroke-miterlimit:4;stroke-opacity:1;stroke-dasharray:none;marker-start:none;marker-end:url(#Arrow2Mend-5A);display:inline"/><path id="path4747-6-6-5" d="M 142.5,112 115,142" style="fill:none;stroke:#6101af;stroke-width:2;stroke-linecap:butt;stroke-linejoin:miter;stroke-miterlimit:4;stroke-opacity:1;stroke-dasharray:none;marker-start:none;marker-end:url(#Arrow2Mend-5X);display:inline"/><path id="path4747-6-5-8" d="m 132.5,104.5 -27.5,30" style="fill:none;stroke:#6101af;stroke-width:2;stroke-linecap:butt;stroke-linejoin:miter;stroke-miterlimit:4;stroke-opacity:1;stroke-dasharray:none;marker-start:url(#Arrow2MstartE);display:inline"/></g><g id="layer6" transform="translate(-3.25,-13.5)" style="display:inline"><use id="use4880" width="405" height="252" x="0" y="0" transform="translate(0,-50)" xlink:href="#use4878"/><use id="use4856" width="405" height="252" x="0" y="0" transform="translate(50,0)" xlink:href="#g4853"/><g id="g4853" transform="matrix(0,-1,1,0,-214.5,264.5)"><use id="use4851" width="405" height="252" x="0" y="0" transform="translate(12.5,12.5)" xlink:href="#use4849"/></g></g><g id="layer3" transform="translate(-3.25,-13.5)" style="display:inline"><g id="g4838"><path id="path3829" d="m 12.5,27 -5,-5 0,10 z" style="fill:none;stroke:#000;stroke-width:1px;stroke-linecap:butt;stroke-linejoin:round;stroke-opacity:1"/><path id="path4818" d="m 5,23.25 a 1.25,1.25 0 1 1 -2.5,0 1.25,1.25 0 1 1 2.5,0 z" transform="translate(1.25,0)" style="fill:none;stroke:#000;stroke-width:1;stroke-linecap:butt;stroke-linejoin:round;stroke-miterlimit:4;stroke-opacity:1;stroke-dasharray:none;stroke-dashoffset:0"/><path id="path4818-3" d="m 5,23.25 a 1.25,1.25 0 1 1 -2.5,0 1.25,1.25 0 1 1 2.5,0 z" transform="translate(1.25,7.5)" style="fill:none;stroke:#000;stroke-width:1;stroke-linecap:butt;stroke-linejoin:round;stroke-miterlimit:4;stroke-opacity:1;stroke-dasharray:none;stroke-dashoffset:0"/></g><use id="use4843" width="405" height="252" x="0" y="0" transform="translate(0,50)" xlink:href="#g4838"/><use id="use4845" width="405" height="252" x="0" y="0" transform="translate(0,50)" xlink:href="#use4843"/><use id="use4847" width="405" height="252" x="0" y="0" transform="translate(0,50)" xlink:href="#use4845"/><use id="use4849" width="405" height="252" x="0" y="0" transform="translate(0,50)" xlink:href="#use4847"/><use id="use4858" width="405" height="252" x="0" y="0" transform="translate(50,0)" xlink:href="#use4856"/><use id="use4860" width="405" height="252" x="0" y="0" transform="translate(50,0)" xlink:href="#use4858"/><use id="use4862" width="405" height="252" x="0" y="0" transform="translate(50,0)" xlink:href="#use4860"/><use id="use4864" width="405" height="252" x="0" y="0" transform="translate(50,0)" xlink:href="#use4862"/><use id="use4866" width="405" height="252" x="0" y="0" transform="translate(50,0)" xlink:href="#use4864"/><use id="use4868" width="405" height="252" x="0" y="0" transform="translate(50,0)" xlink:href="#use4866"/><use id="use4870" width="405" height="252" x="0" y="0" xlink:href="#use4868"/><use id="use4872" width="405" height="252" x="0" y="0" transform="matrix(0,-1,1,0,148,602)" xlink:href="#use4870"/><use id="use4874" width="405" height="252" x="0" y="0" transform="translate(0,-50)" xlink:href="#use4872"/><use id="use4876" width="405" height="252" x="0" y="0" transform="translate(0,-50)" xlink:href="#use4874"/><use id="use4878" width="405" height="252" x="0" y="0" transform="translate(0,-50)" xlink:href="#use4876"/></g><g id="layer9" transform="translate(-3.25,-13.5)" style="display:inline"><text style="font-size:14px;font-style:normal;font-variant:normal;font-weight:700;font-stretch:normal;text-align:start;line-height:125%;letter-spacing:0;word-spacing:0;writing-mode:lr-tb;text-anchor:start;fill:#c90003;fill-opacity:1;stroke:none;font-family:Nimbus Sans L;-inkscape-font-specification:Nimbus Sans L Bold" id="text4962" x="103.25" y="36.25" xml:space="preserve"><tspan id="tspan4964" x="103.25" y="36.25">Earthquake</tspan></text></g><g id="layer8" transform="translate(-3.25,-13.5)" style="display:none"><text style="font-size:14px;font-style:normal;font-variant:normal;font-weight:700;font-stretch:normal;text-align:start;line-height:125%;letter-spacing:0;word-spacing:0;writing-mode:lr-tb;text-anchor:start;fill:#6101af;fill-opacity:1;stroke:none;font-family:Nimbus Sans L;-inkscape-font-specification:Nimbus Sans L Bold" id="text4957" x="200.328" y="151.836" xml:space="preserve"><tspan id="tspan4959" x="200.328" y="151.836">Steady aseismic creep</tspan></text></g><g id="layer7" transform="translate(-3.25,-13.5)" style="display:none"><text style="font-size:14px;font-style:normal;font-variant:normal;font-weight:700;font-stretch:normal;text-align:start;line-height:125%;letter-spacing:0;word-spacing:0;writing-mode:lr-tb;text-anchor:start;fill:#c90003;fill-opacity:1;stroke:none;font-family:Nimbus Sans L;-inkscape-font-specification:Nimbus Sans L Bold" id="text4952" x="15.75" y="31.25" xml:space="preserve"><tspan id="tspan4954" x="15.75" y="31.25">Earthquake @ t=150 yrs</tspan></text></g></svg>